[Header]
FileType HTR
DataType HTRS
FileVersion 1
NumSegments 64
NumFrames 3
DataFrameRate 24
EulerRotationOrder ZYX
CalibrationUnits mm
RotationUnits Degrees
GlobalAxisofGravity Y
BoneLengthAxis Y
ScaleFactor 1.0
[SegmentNames&Hierarchy]
Hips	GLOBAL
Spine	Hips
Spine1	Spine
Spine2	Spine1
Neck	Spine2
Head	Neck
LeftEye	Head
RightEye	Head
LeftShoulder	Spine2
LeftArm	LeftShoulder
LeftForeArm	LeftArm
LeftHand	LeftForeArm
LeftHandThumb1	LeftHand
LeftHandThumb2	LeftHandThumb1
LeftHandThumb3	LeftHandThumb2
LeftHandThumb4	LeftHandThumb3
LeftHandIndex1	LeftHand
LeftHandIndex2	LeftHandIndex1
LeftHandIndex3	LeftHandIndex2
LeftHandIndex4	LeftHandIndex3
LeftHandMiddle1	LeftHand
LeftHandMiddle2	LeftHandMiddle1
LeftHandMiddle3	LeftHandMiddle2
LeftHandMiddle4	LeftHandMiddle3
LeftHandRing1	LeftHand
LeftHandRing2	LeftHandRing1
LeftHandRing3	LeftHandRing2
LeftHandRing4	LeftHandRing3
LeftHandPinky1	LeftHand
LeftHandPinky2	LeftHandPinky1
LeftHandPinky3	LeftHandPinky2
LeftHandPinky4	LeftHandPinky3
RightShoulder	Spine2
RightArm	RightShoulder
RightForeArm	RightArm
RightHand	RightForeArm
RightHandPinky1	RightHand
RightHandPinky2	RightHandPinky1
RightHandPinky3	RightHandPinky2
RightHandPinky4	RightHandPinky3
RightHandRing1	RightHand
RightHandRing2	RightHandRing1
RightHandRing3	RightHandRing2
RightHandRing4	RightHandRing3
RightHandMiddle1	RightHand
RightHandMiddle2	RightHandMiddle1
RightHandMiddle3	RightHandMiddle2
RightHandMiddle4	RightHandMiddle3
RightHandIndex1	RightHand
RightHandIndex2	RightHandIndex1
RightHandIndex3	RightHandIndex2
RightHandIndex4	RightHandIndex3
RightHandThumb1	RightHand
RightHandThumb2	RightHandThumb1
RightHandThumb3	RightHandThumb2
RightHandThumb4	RightHandThumb3
LeftUpLeg	Hips
LeftLeg	LeftUpLeg
LeftFoot	LeftLeg
LeftToeBase	LeftFoot
RightUpLeg	Hips
RightLeg	RightUpLeg
RightFoot	RightLeg
RightToeBase	RightFoot
[BasePosition]
Hips	0	0	0	0	0	0	1
Spine	0	0	0	0	0	0	1
Spine1	0	0	0	0	0	0	1
Spine2	0	0	0	0	0	0	1
Neck	0	0	0	0	0	0	1
Head	0	0	0	0	0	0	1
LeftEye	0	0	0	0	0	0	1
RightEye	0	0	0	0	0	0	1
LeftShoulder	0	0	0	0	0	0	1
LeftArm	0	0	0	0	0	0	1
LeftForeArm	0	0	0	0	0	0	1
LeftHand	0	0	0	0	0	0	1
LeftHandThumb1	0	0	0	0	0	0	1
LeftHandThumb2	0	0	0	0	0	0	1
LeftHandThumb3	0	0	0	0	0	0	1
LeftHandThumb4	0	0	0	0	0	0	1
LeftHandIndex1	0	0	0	0	0	0	1
LeftHandIndex2	0	0	0	0	0	0	1
LeftHandIndex3	0	0	0	0	0	0	1
LeftHandIndex4	0	0	0	0	0	0	1
LeftHandMiddle1	0	0	0	0	0	0	1
LeftHandMiddle2	0	0	0	0	0	0	1
LeftHandMiddle3	0	0	0	0	0	0	1
LeftHandMiddle4	0	0	0	0	0	0	1
LeftHandRing1	0	0	0	0	0	0	1
LeftHandRing2	0	0	0	0	0	0	1
LeftHandRing3	0	0	0	0	0	0	1
LeftHandRing4	0	0	0	0	0	0	1
LeftHandPinky1	0	0	0	0	0	0	1
LeftHandPinky2	0	0	0	0	0	0	1
LeftHandPinky3	0	0	0	0	0	0	1
LeftHandPinky4	0	0	0	0	0	0	1
RightShoulder	0	0	0	0	0	0	1
RightArm	0	0	0	0	0	0	1
RightForeArm	0	0	0	0	0	0	1
RightHand	0	0	0	0	0	0	1
RightHandPinky1	0	0	0	0	0	0	1
RightHandPinky2	0	0	0	0	0	0	1
RightHandPinky3	0	0	0	0	0	0	1
RightHandPinky4	0	0	0	0	0	0	1
RightHandRing1	0	0	0	0	0	0	1
RightHandRing2	0	0	0	0	0	0	1
RightHandRing3	0	0	0	0	0	0	1
RightHandRing4	0	0	0	0	0	0	1
RightHandMiddle1	0	0	0	0	0	0	1
RightHandMiddle2	0	0	0	0	0	0	1
RightHandMiddle3	0	0	0	0	0	0	1
RightHandMiddle4	0	0	0	0	0	0	1
RightHandIndex1	0	0	0	0	0	0	1
RightHandIndex2	0	0	0	0	0	0	1
RightHandIndex3	0	0	0	0	0	0	1
RightHandIndex4	0	0	0	0	0	0	1
RightHandThumb1	0	0	0	0	0	0	1
RightHandThumb2	0	0	0	0	0	0	1
RightHandThumb3	0	0	0	0	0	0	1
RightHandThumb4	0	0	0	0	0	0	1
LeftUpLeg	0	0	0	0	0	0	1
LeftLeg	0	0	0	0	0	0	1
LeftFoot	0	0	0	0	0	0	1
LeftToeBase	0	0	0	0	0	0	1
RightUpLeg	0	0	0	0	0	0	1
RightLeg	0	0	0	0	0	0	1
RightFoot	0	0	0	0	0	0	1
RightToeBase	0	0	0	0	0	0	1
[Hips]
12	99.98427582	1015.673523	-68.89975739	-1.732335091	-33.33362579	-4.813458443	1.0
13	93.93783569	1016.303833	-78.52445221	-2.219961405	-41.04338074	-4.366665363	1.0
14	87.92749023	1020.293335	-83.98626709	-2.758383751	-50.6076355	-3.512412786	1.0
[Spine]
12	0	101.8159943	1.315000057	2.917725801	-0.5058026314	3.165242434	1.0
13	0	101.8159943	1.315000057	3.186952114	-0.02666068822	2.517557859	1.0
14	0	101.8159943	1.315000057	3.359781027	0.4455668628	1.820922136	1.0
[Spine1]
12	0	100.8349991	-10.00800037	0.8440057635	-1.502364516	-2.568062305	1.0
13	0	100.8349991	-10.00800037	1.05603385	-1.122594833	-3.115820169	1.0
14	0	100.8349991	-10.00800037	1.189366221	-0.7334321141	-3.494093657	1.0
[Spine2]
12	0	91	-13.73399925	0.7013269067	-1.12773788	1.321645379	1.0
13	0	91	-13.73399925	0.9344077706	-0.7392207384	0.9845574498	1.0
14	0	91	-13.73399925	1.097367525	-0.3431586623	0.6964339614	1.0
[Neck]
12	0	166.7169952	-25.16200066	7.689694405	-8.146785736	2.089452028	1.0
13	0	166.7169952	-25.16200066	7.507138729	-7.367277145	1.760984182	1.0
14	0	166.7169952	-25.16200066	7.378707886	-6.442065239	1.62921524	1.0
[Head]
12	0	96.17900085	16.84999847	-2.641890526	-23.4990139	9.372832298	1.0
13	0	96.17900085	16.84999847	-3.121189117	-22.70693207	9.768239021	1.0
14	0	96.17900085	16.84999847	-3.667149305	-20.89702415	9.945205688	1.0
[LeftEye]
12	30.6760006	64.09500122	92.83599854	0	0	0	1.0
13	30.6760006	64.09500122	92.83599854	0	0	0	1.0
14	30.6760006	64.09500122	92.83599854	0	0	0	1.0
[RightEye]
12	-30.6760006	64.09500122	92.83499908	0	0	0	1.0
13	-30.6760006	64.09500122	92.83499908	0	0	0	1.0
14	-30.6760006	64.09500122	92.83499908	0	0	0	1.0
[LeftShoulder]
12	45.70400238	109.4599991	-26.28000069	4.654596806	-17.59714317	-12.97398663	1.0
13	45.70400238	109.4599991	-26.28000069	4.679840565	-18.13557243	-13.18582535	1.0
14	45.70400238	109.4599991	-26.28000069	4.669083595	-17.90921783	-13.25560856	1.0
[LeftArm]
12	105.923996	-5.24600029	-22.32099915	14.83730602	5.328982353	-60.04896164	1.0
13	105.923996	-5.24600029	-22.32099915	13.93414211	5.344408512	-58.74180222	1.0
14	105.923996	-5.24600029	-22.32099915	13.27545929	5.043490887	-57.95978928	1.0
[LeftForeArm]
12	278.414978	-0.0009999999311	0	2.625774641e-06	-9.210441589	-0.0002062394487	1.0
13	278.414978	-0.0009999999311	0	-3.187168659e-06	-9.5457201	-0.0001950173755	1.0
14	278.414978	-0.0009999999311	0	-1.448567332e-06	-9.377305031	-0.0001985374984	1.0
[LeftHand]
12	283.2879944	0	0	-27.20760345	7.765177727	0.7965837121	1.0
13	283.2879944	0	0	-27.4159584	8.318078041	1.319963813	1.0
14	283.2879944	0	0	-28.12253571	8.594392776	1.668607831	1.0
[LeftHandThumb1]
12	24.6609993	-15.75	26.8239994	-0.4889863729	2.201392412	4.818544865	1.0
13	24.6609993	-15.75	26.8239994	-0.4889863729	2.201392412	4.818544865	1.0
14	24.6609993	-15.75	26.8239994	-0.4889863729	2.201392412	4.818544865	1.0
[LeftHandThumb2]
12	32.29800034	-18.64699936	18.64699936	20.36070251	18.18278694	22.55587959	1.0
13	32.29800034	-18.64699936	18.64699936	20.35504341	18.19524765	22.47487831	1.0
14	32.29800034	-18.64699936	18.64699936	20.51045418	18.91124153	22.7736721	1.0
[LeftHandThumb3]
12	26.52600098	-15.31499958	15.31499958	-13.17839432	5.450345993	8.001373291	1.0
13	26.52600098	-15.31499958	15.31499958	-13.09735489	5.436382294	8.031609535	1.0
14	26.52600098	-15.31499958	15.31499958	-13.16589928	5.497225761	7.985283852	1.0
[LeftHandThumb4]
12	19.54599953	-11.28499985	11.28499985	0	0	0	1.0
13	19.54599953	-11.28499985	11.28499985	0	0	0	1.0
14	19.54599953	-11.28499985	11.28499985	0	0	0	1.0
[LeftHandIndex1]
12	91.09299469	-5.170999527	22.60099792	0.08927213401	-1.091316938	-7.476805687	1.0
13	91.09299469	-5.170999527	22.60099792	0.06670420617	-0.8594062924	-8.860934258	1.0
14	91.09299469	-5.170999527	22.60099792	0.1138204858	-0.8436857462	-8.508055687	1.0
[LeftHandIndex2]
12	36.76399994	0	0	-0.262719363	1.732379436	-17.24500847	1.0
13	36.76399994	0	0	-0.2650889158	1.740020156	-17.3235836	1.0
14	36.76399994	0	0	-0.265489459	1.741306067	-17.33668327	1.0
[LeftHandIndex3]
12	28.83100128	0	0	-0.05557109416	0.8040652871	-7.906984806	1.0
13	28.83100128	0	0	-0.05667444319	0.8120001554	-7.98545742	1.0
14	28.83100128	0	0	-0.05687075108	0.8133158088	-7.998611927	1.0
[LeftHandIndex4]
12	23.92700005	0	0	0	0	0	1.0
13	23.92700005	0	0	0	0	0	1.0
14	23.92700005	0	0	0	0	0	1.0
[LeftHandMiddle1]
12	95.33399963	0	0	-0.8263094425	2.859112263	-16.18178558	1.0
13	95.33399963	0	0	-0.8339030147	2.877635717	-16.29289436	1.0
14	95.33399963	0	0	-0.8068878055	2.803039074	-15.89692497	1.0
[LeftHandMiddle2]
12	36.98199844	0	0	-0.2720944881	1.762283564	-17.55250549	1.0
13	36.98199844	0	0	-0.2716541588	1.760885477	-17.5381279	1.0
14	36.98199844	0	0	-0.2698714137	1.755285501	-17.48056221	1.0
[LeftHandMiddle3]
12	29.50900078	0	0	-0.303894192	1.859822392	-18.55896187	1.0
13	29.50900078	0	0	-0.3034281433	1.858430862	-18.54452324	1.0
14	29.50900078	0	0	-0.3015810251	1.852863073	-18.48707581	1.0
[LeftHandMiddle4]
12	28.3390007	0	0	0	0	0	1.0
13	28.3390007	0	0	0	0	0	1.0
14	28.3390007	0	0	0	0	0	1.0
[LeftHandRing1]
12	91.04499817	-0.4390000105	-18.65100098	-1.276700139	3.185110092	-22.37451172	1.0
13	91.04499817	-0.4390000105	-18.65100098	-1.294974804	3.201027155	-22.61071777	1.0
14	91.04499817	-0.4390000105	-18.65100098	-1.254939675	3.27385807	-22.0894146	1.0
[LeftHandRing2]
12	31.54000092	0	0	-0.3851174116	2.086056471	-20.91788864	1.0
13	31.54000092	0	0	-0.3854334354	2.086882591	-20.92654037	1.0
14	31.54000092	0	0	-0.3853346705	2.086638212	-20.92400932	1.0
[LeftHandRing3]
12	29.37700081	0	0	-0.2819784284	1.793262839	-17.87141609	1.0
13	29.37700081	0	0	-0.282251209	1.794086814	-17.88006973	1.0
14	29.37700081	0	0	-0.2821717262	1.793804049	-17.87729645	1.0
[LeftHandRing4]
12	26.47500038	0	0	0	0	0	1.0
13	26.47500038	0	0	0	0	0	1.0
14	26.47500038	0	0	0	0	0	1.0
[LeftHandPinky1]
12	80.77799988	-4.887000084	-38.06099701	-1.980537534	4.462330818	-28.36194611	1.0
13	80.77799988	-4.887000084	-38.06099701	-1.98421371	4.459233761	-28.38886833	1.0
14	80.77799988	-4.887000084	-38.06099701	-1.850976944	4.931548595	-27.86964417	1.0
[LeftHandPinky2]
12	36	0	0	-0.2707126141	1.757917404	-17.50755119	1.0
13	36	0	0	-0.2704748809	1.757163763	-17.49985886	1.0
14	36	0	0	-0.2763131559	1.775593042	-17.68940735	1.0
[LeftHandPinky3]
12	21.14200211	0	0	-0.2431409657	1.668064833	-16.58565331	1.0
13	21.14200211	0	0	-0.242922321	1.667297602	-16.57773018	1.0
14	21.14200211	0	0	-0.2488096356	1.686964273	-16.77903748	1.0
[LeftHandPinky4]
12	19.75699997	0	0	0	0	0	1.0
13	19.75699997	0	0	0	0	0	1.0
14	19.75699997	0	0	0	0	0	1.0
[RightShoulder]
12	-45.70000076	109.4620056	-26.28000069	4.648649216	14.55875683	14.43655586	1.0
13	-45.70000076	109.4620056	-26.28000069	4.533212662	14.79728222	14.1772995	1.0
14	-45.70000076	109.4620056	-26.28000069	4.555791855	15.0188036	14.27392769	1.0
[RightArm]
12	-105.9280014	-5.248000145	-22.32099915	-29.88798714	-13.50505257	69.93419647	1.0
13	-105.9280014	-5.248000145	-22.32099915	-29.57821274	-12.59220219	70.79571533	1.0
14	-105.9280014	-5.248000145	-22.32099915	-27.0862999	-10.96604252	70.61473846	1.0
[RightForeArm]
12	-278.414978	0	0	3.214294679e-07	23.35659409	-2.627432332e-05	1.0
13	-278.414978	0	0	-5.361203876e-06	21.24466896	-1.391586648e-05	1.0
14	-278.414978	0	0	9.399283954e-06	18.63247108	7.608944543e-06	1.0
[RightHand]
12	-283.2879944	0	0.0009999999311	34.46678162	15.70971394	9.576072693	1.0
13	-283.2879944	0	0.0009999999311	33.76223373	14.30195808	8.518548965	1.0
14	-283.2879944	0	0.0009999999311	30.29870224	13.69158077	5.057830811	1.0
[RightHandPinky1]
12	-80.76699829	-4.885000229	-38.06000137	-1.433012247	-5.588773251	26.15068626	1.0
13	-80.76699829	-4.885000229	-38.06000137	-1.435037494	-5.460280895	26.19684792	1.0
14	-80.76699829	-4.885000229	-38.06000137	-1.448828578	-5.445203304	26.40026093	1.0
[RightHandPinky2]
12	-36	0	0.0009999999311	-0.2101852298	-1.380626678	17.33112335	1.0
13	-36	0	0.0009999999311	-0.2103611827	-1.381193399	17.33844948	1.0
14	-36	0	0.0009999999311	-0.2112681419	-1.384109855	17.37611198	1.0
[RightHandPinky3]
12	-21.14200211	0	0	-0.1895878017	-1.312735319	16.43509102	1.0
13	-21.14200211	0	0	-0.1897431761	-1.313260674	16.44186783	1.0
14	-21.14200211	0	0	-0.1906029284	-1.316185236	16.479496	1.0
[RightHandPinky4]
12	-19.75699997	0	0	0	0	0	1.0
13	-19.75699997	0	0	0	0	0	1.0
14	-19.75699997	0	0	0	0	0	1.0
[RightHandRing1]
12	-91.03599548	-0.4390000105	-18.65100098	-1.064024329	-2.778707266	20.76443672	1.0
13	-91.03599548	-0.4390000105	-18.65100098	-1.055522919	-2.824358463	20.63501358	1.0
14	-91.03599548	-0.4390000105	-18.65100098	-1.070310831	-2.978382826	20.85638237	1.0
[RightHandRing2]
12	-31.54000092	0	0	-0.3035440147	-1.650523424	20.8404541	1.0
13	-31.54000092	0	0	-0.3036265075	-1.65072906	20.84315491	1.0
14	-31.54000092	0	0	-0.3050858378	-1.654561639	20.89379692	1.0
[RightHandRing3]
12	-29.37700081	0	0	-0.2218647897	-1.417533875	17.7896862	1.0
13	-29.37700081	0	0	-0.2219139338	-1.417716146	17.79206657	1.0
14	-29.37700081	0	0	-0.2231590152	-1.421561599	17.84197044	1.0
[RightHandRing4]
12	-26.47500038	0	0	0	0	0	1.0
13	-26.47500038	0	0	0	0	0	1.0
14	-26.47500038	0	0	0	0	0	1.0
[RightHandMiddle1]
12	-95.32500458	0	0	-0.7337060571	-2.965737104	15.53399086	1.0
13	-95.32500458	0	0	-0.7283563018	-2.813373804	15.44662857	1.0
14	-95.32500458	0	0	-0.7299335599	-2.671408176	15.4751091	1.0
[RightHandMiddle2]
12	-36.98199844	0	0	-0.2140815109	-1.393066287	17.47252846	1.0
13	-36.98199844	0	0	-0.2137292176	-1.391918063	17.45771027	1.0
14	-36.98199844	0	0	-0.2131980062	-1.390258431	17.43611717	1.0
[RightHandMiddle3]
12	-29.50900078	0	0	-0.239257127	-1.472651362	18.47993088	1.0
13	-29.50900078	0	0	-0.23887299	-1.471506238	18.46506119	1.0
14	-29.50900078	0	0	-0.2383255661	-1.469858408	18.44356728	1.0
[RightHandMiddle4]
12	-28.3390007	0	0.0009999999311	0	0	0	1.0
13	-28.3390007	0	0.0009999999311	0	0	0	1.0
14	-28.3390007	0	0.0009999999311	0	0	0	1.0
[RightHandIndex1]
12	-91.08300018	-5.167999744	22.60099792	0.2173463553	1.102595329	7.271893024	1.0
13	-91.08300018	-5.167999744	22.60099792	0.2623770237	1.023866534	7.184206009	1.0
14	-91.08300018	-5.167999744	22.60099792	0.2792180479	0.9778314829	7.249986172	1.0
[RightHandIndex2]
12	-36.76399994	0	0	-0.2128914148	-1.389268279	17.42341042	1.0
13	-36.76399994	0	0	-0.2129575461	-1.389462948	17.42592049	1.0
14	-36.76399994	0	0	-0.2131070495	-1.389965057	17.43238258	1.0
[RightHandIndex3]
12	-28.83100128	0	0	-0.04594489187	-0.6513769627	8.069282532	1.0
13	-28.83100128	0	0	-0.04596908391	-0.6515811682	8.071770668	1.0
14	-28.83100128	0	0	-0.0460469462	-0.652101934	8.078244209	1.0
[RightHandIndex4]
12	-23.92700005	0	0	0	0	0	1.0
13	-23.92700005	0	0	0	0	0	1.0
14	-23.92700005	0	0	0	0	0	1.0
[RightHandThumb1]
12	-24.64799881	-15.72700024	26.82600021	-1.658462644	-0.289145112	-4.221315384	1.0
13	-24.64799881	-15.72700024	26.82600021	-1.658462644	-0.289145112	-4.221315384	1.0
14	-24.64799881	-15.72700024	26.82600021	-1.658462644	-0.289145112	-4.221315384	1.0
[RightHandThumb2]
12	-32.29800034	-18.64699936	18.64699936	21.97392654	-20.01589203	-22.80276871	1.0
13	-32.29800034	-18.64699936	18.64699936	22.09168434	-20.36333275	-22.9145565	1.0
14	-32.29800034	-18.64699936	18.64699936	22.56169128	-21.63639259	-23.49601936	1.0
[RightHandThumb3]
12	-26.52600098	-15.31399918	15.31399918	-13.88810062	-5.984472275	-11.36019611	1.0
13	-26.52600098	-15.31399918	15.31399918	-13.84338665	-5.921964645	-11.40467167	1.0
14	-26.52600098	-15.31399918	15.31399918	-13.87066269	-5.817479134	-11.54920101	1.0
[RightHandThumb4]
12	-19.54599953	-11.28499985	11.28499985	0	0	0	1.0
13	-19.54599953	-11.28499985	11.28499985	0	0	0	1.0
14	-19.54599953	-11.28499985	11.28499985	0	0	0	1.0
[LeftUpLeg]
12	82.07800293	-67.51699829	-15.99599934	-20.16604424	27.91590118	6.879703999	1.0
13	82.07800293	-67.51699829	-15.99599934	-22.21308899	29.53188133	8.245767593	1.0
14	82.07800293	-67.51699829	-15.99599934	-21.62320328	28.90875435	8.482578278	1.0
[LeftLeg]
12	0	-443.7049866	2.845999956	36.43023682	-4.251140118	-2.391075611	1.0
13	0	-443.7049866	2.845999956	43.54611588	-4.78497982	-4.804853916	1.0
14	0	-443.7049866	2.845999956	44.47990036	-6.676868439	-7.29484272	1.0
[LeftFoot]
12	0	-444.2789917	-29.8219986	-3.872833014	20.86450005	4.288859844	1.0
13	0	-444.2789917	-29.8219986	3.38403821	14.57805347	9.382525444	1.0
14	0	-444.2789917	-29.8219986	8.062114716	11.48169041	6.650415897	1.0
[LeftToeBase]
12	0	-87.28699493	107.1060028	-6.868694305	9.740922451e-07	-1.441669951e-06	1.0
13	0	-87.28699493	107.1060028	-6.226298332	-0.1619256884	-1.787565947	1.0
14	0	-87.28699493	107.1060028	-8.796274185	-0.5582669973	-5.999603271	1.0
[RightUpLeg]
12	-82.07800293	-67.51699829	-15.99599934	-6.340973377	-25.61211395	-1.57106638	1.0
13	-82.07800293	-67.51699829	-15.99599934	-6.722030163	-27.02174568	-0.7449678779	1.0
14	-82.07800293	-67.51699829	-15.99599934	-6.506729603	-27.36364174	0.0782129392	1.0
[RightLeg]
12	0	-443.7049866	2.861999989	22.99898338	-11.22625637	6.230019569	1.0
13	0	-443.7049866	2.861999989	22.06030083	-7.429205894	6.218051434	1.0
14	0	-443.7049866	2.861999989	19.91906357	-2.628209114	6.490436077	1.0
[RightFoot]
12	0	-444.2770081	-29.83799934	-10.85742569	-30.71403122	-0.1206524	1.0
13	0	-444.2770081	-29.83799934	-9.291314125	-30.84663582	-1.665379405	1.0
14	0	-444.2770081	-29.83799934	-7.650362492	-30.88718414	-4.172381401	1.0
[RightToeBase]
12	0	-87.28699493	107.1060028	-9.058792114	2.445408791e-05	-8.541100556e-07	1.0
13	0	-87.28699493	107.1060028	-9.264304161	1.235430227e-05	-3.018597681e-06	1.0
14	0	-87.28699493	107.1060028	-9.332835197	-1.560717101e-05	2.684259925e-06	1.0
[EndOfFile]
